<svg width="260" height="259" viewBox="0 0 260 259" fill="none" xmlns="http://www.w3.org/2000/svg">
<path d="M138.7 0.4L138.4 13.2L136.2 13.1L136.5 2.1L132.6 2L132.2 6.9C132.1 8.4 131.8 9.6 131.5 10.5C131.2 11.3 130.7 12 130.2 12.3C129.6 12.7 128.9 12.9 128 12.8H127.4V11H127.8C128.3 11 128.7 10.8 129 10.5C129.3 10.2 129.5 9.7 129.7 9.1C129.9 8.5 130 7.6 130.1 6.3L130.5 0L138.7 0.4Z" fill="#FAC403"/>
<path d="M147.6 4.70039L149.7 5.00039L148.5 14.4004L146.4 14.1004L147.2 7.80039L142.7 13.6004L140.6 13.3004L141.8 3.90039L143.9 4.20039L143.1 10.5004L147.6 4.70039Z" fill="#FAC403"/>
<path d="M158 16.3004L155.9 15.9004L156.6 12.8004C156 12.8004 155.5 12.8004 154.9 12.6004C153.6 12.3004 152.7 11.8004 152.2 11.1004C151.7 10.3004 151.5 9.40039 151.7 8.30039L152.3 5.40039L154.4 5.80039L153.8 8.70039C153.7 9.40039 153.7 9.90039 154 10.2004C154.2 10.5004 154.7 10.8004 155.3 10.9004C155.9 11.0004 156.4 11.1004 157 11.1004L157.9 6.60039L160 7.00039L158 16.3004Z" fill="#FAC403"/>
<path d="M167.7 19.1002L165.7 18.5002L166.8 14.8002L163.3 13.7002L162.2 17.4002L160.2 16.8002L162.9 7.7002L164.9 8.30019L163.8 12.1002L167.3 13.2002L168.4 9.4002L170.4 10.0002L167.7 19.1002Z" fill="#FAC403"/>
<path d="M174.2 14.5996L176.1 15.3996C176.8 15.6996 177.4 16.0996 177.8 16.5996C178.2 17.0996 178.5 17.5996 178.6 18.1996C178.7 18.7996 178.6 19.2996 178.4 19.8996C178 20.7996 177.4 21.3996 176.5 21.6996C175.6 21.9996 174.7 21.8996 173.6 21.4996L169.7 19.8996L173.4 11.0996L175.4 11.8996L174.2 14.5996ZM173.5 16.1996L172.3 18.9996L174.2 19.7996C174.7 19.9996 175.1 19.9996 175.5 19.8996C175.9 19.7996 176.2 19.4996 176.3 18.9996C176.5 18.5996 176.5 18.0996 176.3 17.7996C176.1 17.3996 175.8 17.0996 175.4 16.8996L173.5 16.1996ZM180.6 24.2996L178.6 23.4996L182.3 14.6996L184.3 15.4996L180.6 24.2996Z" fill="#FAC403"/>
<path d="M186.2 27.5003C185 26.9003 184.2 26.0003 183.9 24.8003C183.6 23.7003 183.7 22.5003 184.4 21.2003L184.5 21.0003C185 20.2003 185.5 19.5003 186.2 19.0003C186.9 18.5003 187.6 18.2003 188.4 18.2003C189.2 18.1003 189.9 18.3003 190.6 18.7003C191.7 19.3003 192.4 20.2003 192.7 21.2003C193 22.2003 192.7 23.5003 192 24.8003L191.6 25.6003L186.1 22.6003C185.8 23.3003 185.7 24.0003 185.9 24.6003C186.1 25.2003 186.5 25.7003 187.1 26.0003C188 26.5003 188.9 26.5003 189.8 26.1003L190.3 27.6003C189.7 27.9003 189 28.1003 188.3 28.0003C187.6 28.0003 186.9 27.8003 186.2 27.5003ZM189.8 20.2003C189.3 19.9003 188.8 19.9003 188.3 20.1003C187.8 20.3003 187.3 20.7003 186.9 21.3003L190.5 23.2003L190.6 23.1003C190.9 22.4003 191 21.9003 190.9 21.4003C190.7 20.8003 190.3 20.5003 189.8 20.2003Z" fill="#FAC403"/>
<path d="M206.6 36.3998L205.8 35.6998L203.4 38.5998L201.7 37.1998L207.7 29.7998L209.4 31.1998L207 34.0998L207.7 34.6998L212.1 33.3998L214.1 35.0998L208.6 36.5998L208.3 42.7998L206.2 40.9998L206.6 36.3998Z" fill="#FAC403"/>
<path d="M211.8 39.4C212.4 38.7 213.2 38.3 213.9 38C214.7 37.7 215.5 37.7 216.2 37.8C217 38 217.7 38.4 218.3 39C219.2 39.9 219.7 40.9 219.7 42.1C219.7 43.3 219.3 44.3 218.4 45.4L218.1 45.8C217.4 46.5 216.7 47 216 47.2C215.2 47.5 214.5 47.5 213.7 47.4C212.9 47.3 212.2 46.8 211.6 46.2C210.6 45.3 210.2 44.2 210.2 43C210.2 41.7 210.7 40.5 211.8 39.4ZM213.2 41C212.5 41.7 212.1 42.4 212 43.1C211.9 43.8 212.1 44.4 212.6 44.9C213.1 45.4 213.7 45.6 214.4 45.5C215.1 45.4 215.8 44.9 216.5 44.1C217.2 43.4 217.5 42.7 217.6 42C217.7 41.3 217.5 40.7 217 40.2C216.5 39.7 215.9 39.5 215.2 39.6C214.7 39.8 214 40.2 213.2 41Z" fill="#FAC403"/>
<path d="M221.2 56.2004L219.8 54.6004L222.7 52.1004L220.3 49.3004L217.4 51.8004L216 50.2004L223.2 43.9004L224.6 45.5004L221.6 48.1004L224 50.9004L227 48.3004L228.4 49.9004L221.2 56.2004Z" fill="#FAC403"/>
<path d="M230.2 52.2998L231.5 53.9998L225.2 58.5998L227.4 61.5998L233.7 56.9998L235 58.6998L228.7 63.2998L229.5 64.2998L225.7 66.7998L224.6 65.1998L226.9 63.4998L222.7 57.6998L230.2 52.2998Z" fill="#FAC403"/>
<path d="M230.6 70.1004C229.9 68.9004 229.7 67.8004 230 66.6004C230.3 65.4004 231 64.5004 232.3 63.8004L232.5 63.7004C233.3 63.2004 234.1 62.9004 235 62.8004C235.8 62.7004 236.6 62.9004 237.3 63.2004C238 63.6004 238.6 64.1004 239 64.8004C239.7 65.9004 239.8 67.0004 239.5 68.0004C239.2 69.0004 238.3 69.9004 237.1 70.7004L236.4 71.1004L233.2 65.8004C232.6 66.3004 232.2 66.8004 232 67.4004C231.8 68.0004 232 68.6004 232.3 69.2004C232.8 70.0004 233.6 70.5004 234.6 70.6004L234.3 72.2004C233.6 72.2004 233 72.0004 232.4 71.6004C231.5 71.3004 231 70.8004 230.6 70.1004ZM237.5 65.6004C237.2 65.1004 236.8 64.8004 236.2 64.7004C235.7 64.6004 235.1 64.7004 234.4 65.0004L236.5 68.5004L236.6 68.4004C237.2 68.0004 237.5 67.5004 237.7 67.1004C237.9 66.7004 237.8 66.2004 237.5 65.6004Z" fill="#FAC403"/>
<path d="M241.3 79.8998C240 80.5998 238.8 80.7998 237.7 80.5998C236.6 80.3998 235.8 79.7998 235.3 78.7998C234.8 77.8998 234.8 76.9998 235.1 76.0998L231.1 78.0998L230.1 76.1998L241.9 70.2998L242.8 72.0998L242 72.5998C243 72.7998 243.7 73.3998 244.2 74.3998C244.7 75.3998 244.7 76.3998 244.3 77.3998C243.8 78.3998 242.9 79.1998 241.5 79.8998H241.3ZM240.5 77.8998C241.3 77.4998 241.9 76.9998 242.3 76.3998C242.6 75.7998 242.6 75.1998 242.3 74.5998C241.9 73.7998 241.3 73.3998 240.5 73.3998L236.7 75.2998C236.2 75.9998 236.2 76.6998 236.6 77.4998C236.9 78.0998 237.4 78.4998 238 78.5998C238.7 78.5998 239.5 78.3998 240.5 77.8998Z" fill="#FAC403"/>
<path d="M247.7 87.0998L246.5 84.1998L239.3 87.0998L238.5 85.0998L245.7 82.1998L244.5 79.3998L246.1 78.7998L249.2 86.4998L247.7 87.0998Z" fill="#FAC403"/>
<path d="M247.8 91.4L248.4 93.4C248.6 94.1 248.7 94.8 248.6 95.5C248.5 96.1 248.3 96.7 247.9 97.1C247.5 97.5 247 97.8 246.4 98C245.5 98.3 244.6 98.2 243.8 97.7C243 97.2 242.5 96.4 242.2 95.3L241 91.2L250.1 88.5L250.7 90.5L247.8 91.4ZM246.1 91.9L243.2 92.8L243.8 94.8C243.9 95.3 244.2 95.7 244.5 95.9C244.8 96.1 245.2 96.2 245.7 96C246.2 95.9 246.5 95.6 246.7 95.2C246.9 94.8 246.9 94.4 246.8 93.9L246.1 91.9ZM244.3 102.5L243.7 100.5L252.8 97.8L253.4 99.8L244.3 102.5Z" fill="#FAC403"/>
<path d="M253.6 117C254.2 116.9 254.6 117.1 255 117.4C255.4 117.7 255.6 118.2 255.7 118.8C255.8 119.4 255.6 119.9 255.3 120.3C255 120.7 254.5 120.9 254 121H253.7C253.2 121.1 252.7 120.9 252.3 120.6C251.9 120.3 251.7 119.8 251.6 119.2C251.5 118.6 251.7 118.1 252 117.8C252.3 117.4 252.7 117.2 253.3 117.1L253.6 117Z" fill="#FAC403"/>
<path d="M252.5 141.1L252.6 139.6L247.1 139.1L247.3 136.9L260 138.1L259.8 140.3L254.4 139.8L254.3 141L259.3 145.2L259.1 147.9L253.4 143L246.3 147.2L246.5 144.5L252.5 141.1Z" fill="#FAC403"/>
<path d="M251.2 148.1C252.1 148.3 252.9 148.6 253.6 149.1C254.3 149.6 254.7 150.2 255 150.9C255.3 151.6 255.3 152.4 255.2 153.3C255 154.6 254.4 155.5 253.4 156.2C252.4 156.8 251.3 157.1 249.9 156.9L249.4 156.8C248.5 156.6 247.7 156.3 247 155.8C246.3 155.3 245.9 154.7 245.6 154C245.3 153.3 245.3 152.5 245.4 151.6C245.6 150.3 246.3 149.3 247.3 148.7C248.3 148.1 249.6 147.9 251 148.2L251.2 148.1ZM250.6 150.2C249.6 150 248.8 150.1 248.2 150.4C247.6 150.7 247.2 151.2 247.1 151.9C247 152.6 247.1 153.2 247.6 153.7C248.1 154.2 248.9 154.5 249.9 154.7C250.8 154.9 251.6 154.8 252.3 154.5C252.9 154.2 253.3 153.7 253.4 153C253.5 152.3 253.4 151.7 252.9 151.2C252.5 150.7 251.7 150.4 250.6 150.2Z" fill="#FAC403"/>
<path d="M246.8 166.7C245.4 166.3 244.3 165.7 243.7 164.8C243 163.9 242.8 162.9 243.1 161.9C243.4 160.9 243.9 160.2 244.7 159.8L240.3 158.6L240.9 156.5L253.6 160L253.1 161.9L252.1 161.7C252.7 162.5 252.8 163.4 252.5 164.5C252.2 165.6 251.5 166.4 250.5 166.8C249.5 167.2 248.2 167.2 246.8 166.8V166.7ZM247.5 164.7C248.4 164.9 249.2 165 249.8 164.7C250.4 164.5 250.8 164 251 163.4C251.2 162.6 251 161.9 250.5 161.3L246.4 160.2C245.6 160.4 245.1 160.9 244.8 161.7C244.6 162.4 244.7 162.9 245.2 163.5C245.7 164 246.4 164.4 247.5 164.7Z" fill="#FAC403"/>
<path d="M239 174.6L239.7 172.6L247 175.3L248.3 171.8L241 169.1L241.7 167.1L250.6 170.4L247.9 177.9L239 174.6Z" fill="#FAC403"/>
<path d="M242.8 178.099C243.6 178.499 244.3 178.999 244.8 179.699C245.3 180.399 245.6 181.099 245.7 181.799C245.8 182.499 245.6 183.399 245.3 184.099C244.8 185.299 243.9 185.999 242.9 186.399C241.9 186.799 240.6 186.699 239.4 186.199L238.9 185.999C238.1 185.599 237.4 185.099 236.9 184.399C236.4 183.799 236.1 183.099 236 182.299C235.9 181.499 236.1 180.699 236.4 179.899C237 178.699 237.8 177.899 239 177.499C240.2 177.099 241.4 177.399 242.8 178.099ZM241.7 179.999C240.8 179.599 240 179.399 239.4 179.599C238.8 179.799 238.2 180.099 237.9 180.799C237.6 181.499 237.6 182.099 238 182.699C238.3 183.299 239 183.799 240 184.299C240.9 184.699 241.6 184.799 242.3 184.699C243 184.599 243.5 184.199 243.8 183.499C244.1 182.899 244.1 182.299 243.8 181.599C243.4 180.999 242.7 180.399 241.7 179.999Z" fill="#FAC403"/>
<path d="M233.8 195C232.5 194.3 231.7 193.4 231.2 192.4C230.8 191.4 230.8 190.4 231.4 189.4C231.9 188.5 232.6 187.9 233.5 187.7L229.6 185.5L230.7 183.6L242.1 190.2L241.1 191.9L240.2 191.5C240.5 192.4 240.5 193.4 239.9 194.3C239.3 195.3 238.5 195.9 237.4 196C236.3 196.1 235.1 195.8 233.8 195.1V195ZM235.1 193.2C235.9 193.7 236.7 193.9 237.3 193.8C238 193.8 238.5 193.4 238.8 192.8C239.2 192 239.2 191.3 238.8 190.6L235.1 188.5C234.3 188.5 233.6 188.8 233.2 189.6C232.9 190.2 232.8 190.8 233.1 191.4C233.5 192.1 234.1 192.7 235.1 193.2Z" fill="#FAC403"/>
<path d="M225.7 198.6C225.9 198.6 226.2 198.7 226.6 198.9C226.4 197.9 226.6 197.1 227.1 196.2C227.6 195.4 228.3 194.9 229.1 194.7C229.9 194.5 230.6 194.6 231.3 195.1C232.1 195.7 232.6 196.4 232.6 197.4C232.6 198.4 232.2 199.4 231.4 200.5L230.7 201.6L231.2 202C231.6 202.3 232 202.4 232.4 202.3C232.8 202.2 233.2 202 233.5 201.5C233.8 201.1 233.9 200.7 233.9 200.3C233.9 199.9 233.7 199.6 233.4 199.4L234.6 197.6C235 197.9 235.3 198.3 235.5 198.9C235.7 199.4 235.7 200 235.6 200.7C235.5 201.3 235.2 202 234.8 202.6C234.2 203.5 233.4 204.1 232.6 204.3C231.8 204.5 230.9 204.4 230.1 203.8L226.6 201.4C225.9 200.9 225.3 200.6 224.7 200.5L224.6 200.4L225.7 198.6ZM228.3 197.6C228.1 197.9 227.9 198.3 227.9 198.8C227.9 199.2 227.9 199.6 228.1 200L229.6 201L230.3 200.1C230.7 199.4 231 198.9 231 198.4C231 197.9 230.8 197.5 230.4 197.2C230.1 197 229.7 196.9 229.4 197C228.9 197 228.6 197.2 228.3 197.6Z" fill="#FAC403"/>
<path d="M224.9 212.4L226.8 210L220.7 205.1L222 203.4L228.1 208.3L230 205.9L231.3 207L226.1 213.4L224.9 212.4Z" fill="#FAC403"/>
<path d="M220.9 219.2L219.4 220.7L212.5 214.2L214 212.7L218.6 217.1L216.6 210L218.1 208.5L225 215L223.5 216.5L218.9 212.1L220.9 219.2Z" fill="#FAC403"/>
<path d="M210.9 215.7L217.2 222.8L214.3 225.4C213.3 226.3 212.4 226.8 211.6 226.9C210.8 227 210.1 226.7 209.5 226.1C209.2 225.8 209 225.4 209 224.9C209 224.5 209.1 224 209.4 223.5C208.9 223.8 208.3 223.9 207.8 223.9C207.3 223.8 206.8 223.6 206.5 223.2C205.9 222.5 205.7 221.8 205.9 221C206.1 220.2 206.6 219.4 207.5 218.6L210.9 215.7ZM212 220.1L210.4 218.3L208.7 219.9C207.9 220.6 207.7 221.3 208.3 221.9C208.8 222.5 209.5 222.4 210.3 221.7L212 220.1ZM213 221.3L211.7 222.5C210.8 223.3 210.6 224 211.1 224.5C211.6 225.1 212.3 225 213.2 224.2L214.6 223L213 221.3Z" fill="#FAC403"/>
<path d="M193.9 229.2L195.6 228L201.2 235.7L199.5 236.9L193.9 229.2ZM205.5 228.8L203.8 230C203.2 230.5 202.5 230.7 201.9 230.9C201.3 231 200.7 231 200.2 230.8C199.7 230.6 199.2 230.2 198.8 229.7C198.2 228.9 198.1 228.1 198.3 227.2C198.5 226.3 199.1 225.5 200 224.9L203.4 222.4L209 230.1L207.3 231.3L205.5 228.8ZM204.5 227.4L202.7 224.9L201 226.1C200.6 226.4 200.3 226.8 200.2 227.1C200.1 227.4 200.2 227.9 200.5 228.3C200.8 228.7 201.1 228.9 201.5 229C201.9 229.1 202.3 228.9 202.7 228.6L204.5 227.4Z" fill="#FAC403"/>
<path d="M183.2 242.7C183.4 243.2 183.5 243.7 183.3 244.2C183.1 244.7 182.8 245 182.2 245.3C181.7 245.5 181.1 245.6 180.7 245.4C180.2 245.2 179.9 244.9 179.6 244.3L179.5 244C179.3 243.5 179.2 243 179.4 242.6C179.6 242.1 179.9 241.8 180.5 241.5C181 241.3 181.5 241.2 182 241.4C182.5 241.6 182.8 241.9 183 242.4L183.2 242.7Z" fill="#FAC403"/>
<path d="M150.4 243.1L152.5 242.6L153.2 245.7L161.4 243.8L160.7 240.7L162.8 240.2L164 245L163 245.2C162.6 245.8 162.4 246.6 162.3 247.6C162.2 248.6 162.3 249.7 162.5 250.8L163.5 256.4L155.6 258.3L153.1 247.6L151.5 248L150.4 243.1ZM160.5 245.8L155.2 247.1L157.3 256.1L160.9 255.2L160.3 251.6C159.9 249.2 159.9 247.3 160.5 245.8Z" fill="#FAC403"/>
<path d="M145.6 246.6C146.9 246.4 148.1 246.7 149 247.4C149.9 248.1 150.5 249.2 150.7 250.6V250.9C150.8 251.8 150.8 252.7 150.5 253.5C150.2 254.3 149.8 254.9 149.2 255.4C148.6 255.9 147.9 256.2 147.1 256.3C145.8 256.5 144.8 256.2 144 255.5C143.2 254.8 142.7 253.7 142.5 252.2L142.4 251.3L148.6 250.5C148.4 249.7 148.1 249.2 147.6 248.8C147.1 248.4 146.5 248.3 145.8 248.4C144.8 248.5 144.1 249 143.6 249.9L142.3 249C142.6 248.4 143 247.9 143.6 247.5C144.1 247 144.8 246.8 145.6 246.6ZM147 254.7C147.6 254.6 148 254.4 148.3 253.9C148.6 253.4 148.8 252.8 148.8 252.1L144.8 252.6V252.8C144.9 253.5 145.2 254 145.6 254.3C145.9 254.6 146.4 254.8 147 254.7Z" fill="#FAC403"/>
<path d="M132.4 247.9L134.5 247.8L134.7 251.6L138.4 251.4L138.2 247.6L140.3 247.5L140.8 257L138.7 257.1L138.5 253.1L134.8 253.3L135 257.3L132.9 257.4L132.4 247.9Z" fill="#FAC403"/>
<path d="M127.9 254.3L125.8 254.2C125 254.2 124.3 254 123.8 253.7C123.2 253.4 122.8 253 122.5 252.5C122.2 252 122.1 251.4 122.1 250.8C122.1 249.8 122.5 249 123.2 248.5C123.9 247.9 124.8 247.7 126 247.7L130.2 247.8L129.9 257.3L127.8 257.2L127.9 254.3ZM128 252.6L128.1 249.5L126 249.4C125.5 249.4 125.1 249.5 124.8 249.8C124.5 250.1 124.3 250.4 124.3 250.9C124.3 251.4 124.4 251.8 124.7 252.1C125 252.4 125.4 252.5 125.9 252.6H128Z" fill="#FAC403"/>
<path d="M98.6999 248.5C98.9999 247.1 99.5999 246 100.5 245.3C101.3 244.6 102.3 244.4 103.4 244.6C104.4 244.8 105.2 245.4 105.6 246.2L106.6 241.8L108.7 242.3L105.8 255.1L103.9 254.7L104 253.7C103.2 254.3 102.3 254.5 101.3 254.2C100.2 253.9 99.3999 253.3 98.8999 252.3C98.3999 251.3 98.3999 250.1 98.6999 248.6V248.5ZM100.7 249.1C100.5 250 100.5 250.8 100.8 251.4C101 252 101.5 252.4 102.2 252.6C103.1 252.8 103.7 252.6 104.3 252L105.2 247.9C105 247.1 104.5 246.6 103.6 246.4C102.9 246.2 102.4 246.4 101.9 246.8C101.4 247.2 101 248.1 100.7 249.1Z" fill="#FAC403"/>
<path d="M97.0998 248.3C96.7998 249.2 96.3998 249.9 95.7998 250.5C95.1998 251.1 94.5998 251.5 93.7998 251.7C92.9998 251.9 92.1998 251.8 91.3998 251.6C90.1998 251.2 89.2998 250.5 88.7998 249.5C88.2998 248.5 88.1998 247.3 88.5998 246L88.6998 245.5C88.9998 244.6 89.3998 243.9 89.9998 243.3C90.5998 242.7 91.1998 242.3 91.9998 242.1C92.7998 241.9 93.5998 242 94.3998 242.2C95.6998 242.6 96.5998 243.4 97.0998 244.5C97.5998 245.6 97.5998 246.9 97.1998 248.3H97.0998ZM95.0998 247.4C95.3998 246.5 95.3998 245.7 95.1998 245C94.9998 244.3 94.4998 243.9 93.7998 243.7C93.0998 243.5 92.4998 243.6 91.8998 244C91.2998 244.4 90.8998 245.1 90.5998 246.2C90.2998 247.1 90.2998 247.9 90.4998 248.6C90.6998 249.3 91.1998 249.7 91.7998 249.9C92.4998 250.1 93.0998 250 93.5998 249.6C94.3998 249.2 94.7998 248.5 95.0998 247.4Z" fill="#FAC403"/>
<path d="M79.7 240.7L80.7 241.2L82.2 237.7L84.2 238.6L82.7 242.1L83.7 242.5L87.2 239.9L89.6 240.9L84.7 244.2L85.6 249.6L83.2 248.6L82.7 244.3L81.8 243.9L80.3 247.3L78.3 246.4L79.8 243L78.9 242.6L75.4 245.2L73 244.2L77.5 241.2L76.6 235.4L79 236.5L79.7 240.7Z" fill="#FAC403"/>
<path d="M75.1001 236.2C74.3001 236.5 73.6001 236.8 73.1001 237.2C72.6001 237.6 72.1001 238.2 71.7001 239L69.8001 242.1L64.1001 238.8L68.0001 232L66.9001 231.3L69.1001 227.4L70.9001 228.5L69.5001 231L74.8001 234L76.2001 231.5L78.1001 232.6L75.8001 236.5L75.1001 236.2ZM72.9001 234.9L69.7001 233.1L66.7001 238.3L68.8001 239.5L69.8001 238C70.8001 236.5 71.8001 235.5 72.9001 234.9Z" fill="#FAC403"/>
<path d="M63.2 226.7C64.3 227.5 65 228.4 65.2 229.6C65.4 230.8 65.1 232 64.3 233.1L64.2 233.3C63.7 234.1 63 234.7 62.3 235.1C61.6 235.5 60.8 235.7 60 235.7C59.2 235.7 58.5 235.4 57.8 235C56.7 234.3 56.1 233.4 56 232.3C55.9 231.2 56.3 230.1 57.1 228.8L57.6 228.1L62.7 231.6C63.1 230.9 63.2 230.3 63.1 229.6C63 229 62.6 228.4 62.1 228.1C61.3 227.5 60.4 227.4 59.5 227.7L59.2 226.1C59.8 225.8 60.5 225.8 61.2 225.9C61.9 226 62.6 226.3 63.2 226.7ZM58.8 233.6C59.3 233.9 59.8 234 60.3 233.9C60.8 233.8 61.3 233.4 61.8 232.9L58.5 230.6L58.4 230.7C58 231.3 57.9 231.9 57.9 232.4C58.1 232.8 58.3 233.2 58.8 233.6Z" fill="#FAC403"/>
<path d="M52.6001 218.7L54.3001 220.1L51.9001 223.1L54.8001 225.4L57.2001 222.4L58.9001 223.8L52.9001 231.2L51.2001 229.8L53.7001 226.7L50.8001 224.4L48.3001 227.5L46.6001 226.1L52.6001 218.7Z" fill="#FAC403"/>
<path d="M40.2002 220L38.7002 218.5L45.3002 211.7L46.8002 213.2L42.4002 217.7L49.5002 215.8L51.0002 217.3L44.4002 224.1L42.9002 222.6L47.3002 218.1L40.2002 220Z" fill="#FAC403"/>
<path d="M22.5998 192.5C22.0998 192.8 21.5998 192.8 21.0998 192.7C20.5998 192.6 20.1998 192.2 19.8998 191.7C19.5998 191.2 19.4998 190.7 19.6998 190.2C19.7998 189.7 20.1998 189.3 20.6998 189.1L20.9998 188.9C21.4998 188.6 21.9998 188.6 22.3998 188.7C22.8998 188.8 23.2998 189.2 23.5998 189.7C23.8998 190.2 23.9998 190.7 23.7998 191.2C23.6998 191.7 23.3998 192 22.8998 192.3L22.5998 192.5Z" fill="#FAC403"/>
<path d="M13.2002 164C14.5002 163.7 15.7002 163.8 16.7002 164.4C17.7002 165 18.4002 166 18.9002 167.4C19.2002 168.4 19.3002 169.3 19.1002 170.2C18.9002 171.1 18.4002 171.9 17.7002 172.6C17.0002 173.3 16.1002 173.8 15.0002 174.2L13.9002 174.6C12.8002 175 11.7002 175.1 10.7002 175C9.7002 174.9 8.8002 174.5 8.1002 173.9C7.4002 173.3 6.8002 172.5 6.5002 171.5C6.1002 170.2 6.1002 169 6.5002 167.9C7.0002 166.8 7.8002 166 9.1002 165.4L9.80019 167.5C9.0002 167.9 8.4002 168.4 8.2002 168.9C8.0002 169.4 8.0002 170.1 8.2002 170.9C8.5002 171.8 9.1002 172.4 9.9002 172.7C10.7002 173 11.8002 172.9 13.1002 172.5L14.2002 172.1C15.5002 171.7 16.4002 171.1 17.0002 170.4C17.5002 169.7 17.6002 168.9 17.3002 168C17.0002 167.2 16.6002 166.6 16.1002 166.3C15.6002 166 14.9002 166 14.0002 166.1L13.2002 164Z" fill="#FAC403"/>
<path d="M16.7 161.1L7.4 163.3L6.6 159.5C6.3 158.2 6.3 157.2 6.6 156.5C6.9 155.8 7.4 155.3 8.3 155.1C8.7 155 9.1 155 9.5 155.2C9.9 155.4 10.3 155.7 10.6 156.2C10.6 155.6 10.7 155 11 154.6C11.3 154.2 11.7 153.9 12.2 153.8C13.1 153.6 13.8 153.8 14.4 154.3C15 154.8 15.4 155.7 15.7 156.9L16.7 161.1ZM10.8 160.3L10.4 158.6C10.1 157.4 9.6 156.9 8.9 157.1C8.2 157.3 7.9 157.9 8.2 159L8.6 160.8L10.8 160.3ZM12.3 159.9L14.6 159.4L14.1 157.1C13.9 156 13.3 155.6 12.6 155.8C11.8 156 11.6 156.6 11.8 157.7L12.3 159.9Z" fill="#FAC403"/>
<path d="M13.7 145.8C13.5 145.9 13.3 146 12.9 146.2C13.7 146.8 14.2 147.5 14.3 148.5C14.4 149.4 14.3 150.3 13.8 150.9C13.3 151.6 12.7 152 11.9 152.1C10.9 152.2 10.1 152 9.40004 151.3C8.80004 150.6 8.30004 149.6 8.10004 148.2L7.90004 146.9L7.30004 147C6.80004 147.1 6.40004 147.3 6.20004 147.6C6.00004 147.9 5.90004 148.4 5.90004 148.9C6.00004 149.4 6.10004 149.8 6.40004 150C6.70004 150.3 7.00004 150.4 7.40004 150.3L7.70004 152.4C7.20004 152.5 6.70004 152.4 6.20004 152.1C5.70004 151.8 5.30004 151.4 4.90004 150.9C4.60004 150.3 4.30004 149.7 4.20004 149C4.00004 147.9 4.20004 147 4.60004 146.2C5.10004 145.5 5.80004 145 6.80004 144.8L11 144.2C11.8 144.1 12.5 143.9 13 143.5H13.1L13.7 145.8ZM12.5 148.4C12.4 148 12.3 147.6 12 147.3C11.7 147 11.4 146.7 11.1 146.6L9.30004 146.9L9.50004 148C9.60004 148.8 9.80004 149.4 10.2 149.7C10.5 150.1 10.9 150.2 11.4 150.1C11.8 150 12.1 149.9 12.3 149.6C12.5 149.2 12.6 148.8 12.5 148.4Z" fill="#FAC403"/>
<path d="M11.5002 142.2C10.8002 141.6 10.2002 141.3 9.5002 141.1C8.9002 140.9 8.1002 140.9 7.2002 140.9H3.6002L3.2002 134.3L11.0002 133.8L10.9002 132.5L15.4002 132.2L15.5002 134.3L12.7002 134.5L13.1002 140.6L15.9002 140.4L16.0002 142.6L11.5002 142.9V142.2ZM11.4002 139.7L11.2002 136.1L5.2002 136.5L5.3002 138.9H7.1002C8.9002 138.7 10.3002 139 11.4002 139.7Z" fill="#FAC403"/>
<path d="M6.2998 128.8L6.3998 126.7C6.3998 125.9 6.5998 125.2 6.8998 124.7C7.1998 124.1 7.5998 123.7 8.0998 123.4C8.5998 123.1 9.1998 123 9.7998 123C10.7998 123 11.5998 123.4 12.0998 124.1C12.6998 124.8 12.8998 125.7 12.8998 126.9L12.7998 131.1L3.2998 130.9L3.3998 128.8H6.2998ZM7.9998 128.9L11.0998 129L11.1998 126.9C11.1998 126.4 11.0998 126 10.7998 125.7C10.4998 125.4 10.1998 125.2 9.69981 125.2C9.19981 125.2 8.7998 125.3 8.5998 125.6C8.2998 125.9 8.1998 126.3 8.0998 126.8L7.9998 128.9Z" fill="#FAC403"/>
<path d="M4.5 116.2C4.6 115 5.1 114.1 6 113.5C6.9 112.9 8 112.6 9.4 112.8H9.5C10.9 112.9 11.9 113.5 12.7 114.3C13.5 115.1 13.8 116.3 13.6 117.6C13.5 118.9 12.9 119.9 12 120.6C11.1 121.3 9.8 121.6 8.3 121.4L7.7 121.3C5.7 121.1 4.1 120.5 3 119.7C1.9 118.8 1.3 117.7 1.1 116.2C1 115.4 0.9 114.8 0.7 114.6C0.5 114.3 0.3 114.2 0 114.2L0.2 112.5C0.8 112.6 1.3 112.7 1.6 112.9C1.9 113.1 2.2 113.5 2.4 113.9C2.6 114.3 2.7 115 2.8 116C2.9 116.9 3.2 117.6 3.6 118.1C4 118.6 4.7 119 5.5 119.2C4.7 118.4 4.4 117.4 4.5 116.2ZM6.2 116.8C6.1 117.5 6.3 118.1 6.7 118.5C7.1 118.9 7.8 119.2 8.8 119.3C9.7 119.4 10.4 119.3 11 119C11.5 118.7 11.9 118.1 11.9 117.4C12 116.7 11.8 116.1 11.3 115.7C10.8 115.3 10.1 115 9.1 114.9C8.3 114.8 7.6 114.9 7.1 115.3C6.6 115.6 6.3 116.1 6.2 116.8Z" fill="#FAC403"/>
<path d="M8.1998 108.3L8.5998 106.3C8.7998 105.5 8.9998 104.9 9.39981 104.4C9.79981 103.9 10.1998 103.5 10.7998 103.3C11.2998 103.1 11.8998 103.1 12.5998 103.2C13.5998 103.4 14.2998 103.9 14.6998 104.7C15.0998 105.5 15.1998 106.5 14.9998 107.6L14.0998 111.8L4.7998 109.8L5.1998 107.7L8.1998 108.3ZM16.4998 100.2L16.0998 102.3L6.7998 100.3L7.1998 98.2002L16.4998 100.2ZM9.7998 108.6L12.7998 109.2L13.1998 107.2C13.2998 106.7 13.2998 106.3 13.0998 105.9C12.8998 105.6 12.5998 105.3 12.0998 105.2C11.5998 105.1 11.1998 105.2 10.8998 105.4C10.5998 105.6 10.2998 106 10.1998 106.5L9.7998 108.6Z" fill="#FAC403"/>
<path d="M15.3002 83.0001C14.8002 82.8001 14.4002 82.4001 14.3002 82.0001C14.2002 81.6001 14.1002 81.0001 14.4002 80.5001C14.6002 79.9001 15.0002 79.6001 15.5002 79.4001C16.0002 79.2001 16.5002 79.2001 17.0002 79.5001L17.3002 79.6001C17.8002 79.8001 18.1002 80.2001 18.3002 80.6001C18.5002 81.1001 18.5002 81.6001 18.2002 82.1001C18.0002 82.6001 17.6002 83.0001 17.2002 83.2001C16.8002 83.4001 16.3002 83.4001 15.8002 83.2001L15.3002 83.0001Z" fill="#FAC403"/>
<path d="M27.8002 62.3996L27.0002 63.5996L31.5002 66.6996L30.3002 68.4996L19.7002 61.2996L20.9002 59.4996L25.4002 62.4996L26.1002 61.4996L23.7002 55.3996L25.2002 53.0996L27.8002 60.1996L36.0002 59.9996L34.6002 62.1996L27.8002 62.3996Z" fill="#FAC403"/>
<path d="M32.4 56.9003C31.7 56.3003 31.1 55.6003 30.8 54.9003C30.5 54.1003 30.3 53.4003 30.4 52.6003C30.5 51.8003 30.8 51.1003 31.4 50.4003C32.2 49.4003 33.2 48.9003 34.3 48.8003C35.4 48.7003 36.6 49.1003 37.7 49.9003L38.1 50.2003C38.8 50.8003 39.4 51.5003 39.7 52.2003C40 52.9003 40.2 53.7003 40.1 54.5003C40 55.3003 39.7 56.0003 39.1 56.7003C38.3 57.7003 37.2 58.3003 36 58.4003C34.8 58.3003 33.6 57.9003 32.4 56.9003ZM33.9 55.3003C34.7 55.9003 35.4 56.2003 36.1 56.3003C36.8 56.3003 37.4 56.1003 37.8 55.5003C38.3 54.9003 38.4 54.3003 38.2 53.7003C38 53.1003 37.5 52.4003 36.7 51.7003C36 51.1003 35.2 50.8003 34.5 50.7003C33.8 50.7003 33.2 50.9003 32.8 51.5003C32.4 52.0003 32.2 52.6003 32.4 53.3003C32.5 54.0003 33 54.6003 33.9 55.3003Z" fill="#FAC403"/>
<path d="M48.4001 46.1L46.9001 47.6L44.1001 44.9L41.6001 47.6L44.4001 50.3L42.9001 51.8L36.1001 45.2L37.6001 43.7L40.5001 46.5L43.1001 43.8L40.2001 41L41.7001 39.5L48.4001 46.1Z" fill="#FAC403"/>
<path d="M43.6001 37.5002L45.2001 36.1002L50.3001 42.0002L53.1001 39.6002L48.0001 33.6002L49.6001 32.2002L54.7001 38.1002L55.7001 37.3002L58.5001 40.8002L57.0001 42.1002L55.1001 40.0002L49.7001 44.7002L43.6001 37.5002Z" fill="#FAC403"/>
<path d="M61.3998 35.5003C60.2998 36.3003 59.1998 36.6003 57.9998 36.4003C56.7998 36.2003 55.7998 35.5003 54.9998 34.4003L54.7998 34.2003C54.1998 33.4003 53.8998 32.6003 53.6998 31.8003C53.4998 31.0003 53.5998 30.2003 53.8998 29.5003C54.1998 28.8003 54.6998 28.2003 55.2998 27.7003C56.2998 26.9003 57.3998 26.7003 58.4998 26.9003C59.5998 27.1003 60.4998 27.9003 61.3998 29.1003L61.8998 29.8003L56.8998 33.5003C57.3998 34.1003 57.9998 34.4003 58.5998 34.5003C59.1998 34.6003 59.7998 34.4003 60.3998 34.0003C61.1998 33.4003 61.5998 32.6003 61.5998 31.6003L63.1998 31.8003C63.1998 32.5003 63.0998 33.1003 62.7998 33.8003C62.4998 34.5003 61.9998 35.0003 61.3998 35.5003ZM56.3998 29.1003C55.8998 29.4003 55.6998 29.9003 55.5998 30.4003C55.5998 30.9003 55.6998 31.5003 56.0998 32.2003L59.3998 29.8003L59.2998 29.7003C58.7998 29.2003 58.3998 28.8003 57.8998 28.7003C57.2998 28.6003 56.7998 28.7003 56.3998 29.1003Z" fill="#FAC403"/>
<path d="M70.2001 24.0002C71.0001 25.3002 71.3001 26.4002 71.2001 27.5002C71.1001 28.6002 70.6001 29.4002 69.6001 30.0002C68.7001 30.5002 67.8001 30.7002 66.9001 30.4002L69.3001 34.2002L67.5001 35.3002L60.6001 24.2002L62.3001 23.2002L62.9001 24.0002C63.0001 23.0002 63.6001 22.3002 64.5001 21.7002C65.5001 21.1002 66.5001 21.0002 67.5001 21.4002C68.5001 21.8002 69.4001 22.6002 70.2001 24.0002ZM68.3001 25.0002C67.8001 24.2002 67.3001 23.6002 66.6001 23.4002C66.0001 23.1002 65.4001 23.2002 64.8001 23.5002C64.1001 24.0002 63.7001 24.6002 63.8001 25.4002L66.0001 29.0002C66.7001 29.4002 67.4001 29.4002 68.2001 29.0002C68.8001 28.6002 69.1001 28.1002 69.1001 27.5002C69.1001 26.7002 68.9001 25.9002 68.3001 25.0002Z" fill="#FAC403"/>
<path d="M76.8002 17.0996L74.1002 18.4996L77.7002 25.4996L75.8002 26.4996L72.2002 19.4996L69.5002 20.8996L68.7002 19.3996L76.1002 15.5996L76.8002 17.0996Z" fill="#FAC403"/>
<path d="M81.0999 16.5998L82.9999 15.7998C83.6999 15.4998 84.3999 15.3998 84.9999 15.3998C85.5999 15.3998 86.1999 15.5998 86.5999 15.9998C87.0999 16.2998 87.3999 16.7998 87.5999 17.3998C87.9999 18.2998 87.8999 19.1998 87.4999 19.9998C87.0999 20.7998 86.2999 21.3998 85.2999 21.7998L81.3999 23.3998L77.8999 14.5998L79.8999 13.7998L81.0999 16.5998ZM81.7999 18.1998L82.8999 21.0998L84.7999 20.2998C85.2999 20.0998 85.5999 19.7998 85.7999 19.4998C85.9999 19.0998 85.9999 18.6998 85.7999 18.2998C85.5999 17.8998 85.2999 17.5998 84.9999 17.3998C84.5999 17.1998 84.1999 17.2998 83.6999 17.3998L81.7999 18.1998ZM92.4999 19.0998L90.4999 19.8998L86.9999 11.0998L88.9999 10.2998L92.4999 19.0998Z" fill="#FAC403"/>
<path d="M106.2 8.5998C106.1 8.0998 106.2 7.5998 106.5 7.1998C106.8 6.7998 107.2 6.4998 107.8 6.3998C108.4 6.2998 108.9 6.3998 109.3 6.6998C109.7 6.9998 110 7.3998 110.1 7.9998L110.2 8.2998C110.3 8.7998 110.2 9.2998 109.9 9.6998C109.6 10.0998 109.2 10.3998 108.6 10.4998C108 10.5998 107.5 10.4998 107.1 10.2998C106.7 9.9998 106.4 9.5998 106.3 9.0998L106.2 8.5998Z" fill="#FAC403"/>
</svg>
